<?xml version="1.0" encoding="UTF-8" standalone="no"?>
<!-- Created with Inkscape (http://www.inkscape.org/) -->

<svg
   xmlns:dc="http://purl.org/dc/elements/1.1/"
   xmlns:cc="http://creativecommons.org/ns#"
   xmlns:rdf="http://www.w3.org/1999/02/22-rdf-syntax-ns#"
   xmlns:svg="http://www.w3.org/2000/svg"
   xmlns="http://www.w3.org/2000/svg"
   xmlns:sodipodi="http://sodipodi.sourceforge.net/DTD/sodipodi-0.dtd"
   xmlns:inkscape="http://www.inkscape.org/namespaces/inkscape"
   id="svg3673"
   version="1.1"
   inkscape:version="0.48.4 r9939"
   sodipodi:docname="logo_mhvision.svg"
   viewBox="0 0 131 110" preserveAspectRatio="none">
  <defs
     id="defs3675" />
  <sodipodi:namedview
     id="base"
     pagecolor="#ffffff"
     bordercolor="#666666"
     borderopacity="1.0"
     inkscape:pageopacity="0.0"
     inkscape:pageshadow="2"
     inkscape:zoom="0.35"
     inkscape:cx="280.40875"
     inkscape:cy="-71.489413"
     inkscape:document-units="px"
     inkscape:current-layer="layer1"
     showgrid="false"
     inkscape:window-width="1600"
     inkscape:window-height="837"
     inkscape:window-x="-8"
     inkscape:window-y="-8"
     inkscape:window-maximized="1"
     fit-margin-top="0"
     fit-margin-left="0"
     fit-margin-right="0"
     fit-margin-bottom="0" />
  <metadata
     id="metadata3678">
    <rdf:RDF>
      <cc:Work
         rdf:about="">
        <dc:format>image/svg+xml</dc:format>
        <dc:type
           rdf:resource="http://purl.org/dc/dcmitype/StillImage" />
        <dc:title></dc:title>
      </cc:Work>
    </rdf:RDF>
  </metadata>
  <g
     inkscape:label="Layer 1"
     inkscape:groupmode="layer"
     id="layer1"
     transform="translate(-94.59125,-352.42302)">
    <path
       d="m 101.38625,458.73402 0,-2.45625 c 0,-0.37375 -0.21,-0.56 -0.62875,-0.56 l -3.94375,0 c -0.4175,0 -0.6275,0.18625 -0.6275,0.56 l 0,2.45625 c 0,0.3725 0.21,0.5575 0.6275,0.5575 l 3.94375,0 c 0.41875,0 0.62875,-0.185 0.62875,-0.5575 m 1.58,0.007 c 0,0.61 -0.215,1.1175 -0.6425,1.52375 -0.4275,0.405 -0.9475,0.6075 -1.55875,0.6075 l -3.95875,0 c -0.61,0 -1.13,-0.2025 -1.5575,-0.6075 C 94.82,459.85852 94.605,459.35102 94.605,458.74102 l 0,-2.4725 c 0,-0.60875 0.215,-1.1175 0.64375,-1.5225 0.4275,-0.40625 0.9475,-0.60875 1.5575,-0.60875 l 3.95875,0 c 0.61125,0 1.13125,0.2025 1.55875,0.60875 0.4275,0.405 0.6425,0.91375 0.6425,1.5225 l 0,2.4725 z"
       inkscape:connector-curvature="0"
       id="path94"
       style="fill:#004655;fill-opacity:1;fill-rule:nonzero;stroke:none" />
    <path
       d="m 121.47787,456.41902 c 0,-0.46875 -0.11375,-0.70125 -0.34125,-0.70125 l -4.94625,0 0,1.38875 4.94625,0 c 0.2275,0 0.34125,-0.22875 0.34125,-0.6875 m 1.57375,0 c 0,0.60375 -0.1675,1.11875 -0.49875,1.54625 -0.3575,0.4825 -0.83,0.72125 -1.41375,0.72125 l -4.94875,0 0,2.18625 -1.58125,0 0,-6.735 6.5275,0 c 0.585,0 1.05875,0.24125 1.415,0.72125 0.3325,0.4375 0.5,0.95625 0.5,1.56"
       inkscape:connector-curvature="0"
       id="path98"
       style="fill:#004655;fill-opacity:1;fill-rule:nonzero;stroke:none" />
    <path
       d="m 142.3445,455.71764 -3.03125,0 0,5.155 -1.58,0 0,-5.155 -3.04375,0 0,-1.58 7.655,0 0,1.58 z"
       inkscape:connector-curvature="0"
       id="path102"
       style="fill:#004655;fill-opacity:1;fill-rule:nonzero;stroke:none" />
    <path
       style="fill:#004655;fill-opacity:1;fill-rule:nonzero;stroke:none"
       id="path104"
       inkscape:connector-curvature="0"
       d="m 155.47625,460.87252 -1.5825,0 0,-6.735 1.5825,0 0,6.735 z" />
    <path
       d="m 174.52713,460.87277 -5.21875,0 c -0.6125,0 -1.13,-0.2025 -1.56,-0.6075 -0.43,-0.40625 -0.64125,-0.91375 -0.64125,-1.52375 l 0,-2.4725 c 0,-0.60875 0.21125,-1.1175 0.64125,-1.5225 0.43,-0.40625 0.9475,-0.60875 1.56,-0.60875 l 5.21875,0 0,1.58 -5.21125,0 c -0.42,0 -0.63,0.18625 -0.63,0.56 l 0,2.45625 c 0,0.3725 0.21,0.5575 0.63,0.5575 l 5.21125,0 0,1.58125 z"
       inkscape:connector-curvature="0"
       id="path108"
       style="fill:#004655;fill-opacity:1;fill-rule:nonzero;stroke:none" />
    <path
       style="fill:#004655;fill-opacity:1;fill-rule:nonzero;stroke:none"
       id="path110"
       inkscape:connector-curvature="0"
       d="m 187.74625,460.87252 -1.58125,0 0,-6.735 1.58125,0 0,6.735 z" />
    <path
       style="fill:#80cc28;fill-opacity:1;fill-rule:nonzero;stroke:none"
       id="path112"
       inkscape:connector-curvature="0"
       d="m 155.47625,452.62752 -1.5825,0 0,-1.58125 1.5825,0 0,1.58125 z" />
    <path
       style="fill:#80cc28;fill-opacity:1;fill-rule:nonzero;stroke:none"
       id="path114"
       inkscape:connector-curvature="0"
       d="m 187.74625,452.62752 -1.58125,0 0,-1.58125 1.58125,0 0,1.58125 z" />
    <path
       d="m 206.5755,455.71764 -5.615,0 0,1.005 5.2475,0 0,1.58 -5.2475,0 0,0.98875 5.60125,0 0,1.58125 -7.1825,0 0,-6.735 7.19625,0 0,1.58 z"
       inkscape:connector-curvature="0"
       id="path118"
       style="fill:#004655;fill-opacity:1;fill-rule:nonzero;stroke:none" />
    <path
       d="m 225.4085,460.87277 -1.58,0 -4.03125,-4.5325 0,4.5325 -1.5825,0 0,-6.735 1.57375,0 4.05,4.50875 -0.01,-4.50875 1.58,0 0,6.735 z"
       inkscape:connector-curvature="0"
       id="path122"
       style="fill:#004655;fill-opacity:1;fill-rule:nonzero;stroke:none" />
    <path
       d="m 121.89287,422.09464 -13.585,26.08125 -13.525,-26.08125 5.80375,0 c 0.54375,1.0425 1.16125,2.23125 1.85875,3.565 0.6975,1.33375 1.3925,2.685 2.08875,4.05625 0.6975,1.37125 1.385,2.695 2.06125,3.97 0.6775,1.275 1.25,2.3775 1.7125,3.305 0.58125,-1.12 1.2475,-2.405 2.00375,-3.855 0.755,-1.4475 1.5,-2.8875 2.23375,-4.3175 0.735,-1.43 1.4125,-2.7525 2.03125,-3.97 0.62125,-1.2175 1.10375,-2.13375 1.45375,-2.75375 l 5.8625,0 z"
       inkscape:connector-curvature="0"
       id="path126"
       style="fill:#004655;fill-opacity:1;fill-rule:nonzero;stroke:none" />
    <path
       style="fill:#004655;fill-opacity:1;fill-rule:nonzero;stroke:none"
       id="path128"
       inkscape:connector-curvature="0"
       d="m 128.64875,448.24627 -5.1175,0 0,-26.08125 5.1175,0 0,26.08125 z" />
    <path
       d="m 153.76175,422.16477 0,5.18875 -15.7325,0 c -0.735,0 -1.35625,0.25125 -1.85625,0.75125 -0.505,0.5 -0.7575,1.1175 -0.7575,1.84875 0,0.73125 0.2525,1.35875 0.7575,1.8775 0.5,0.52 1.12125,0.78 1.85625,0.78 l 10.44875,0 c 1.085,0 2.0975,0.20375 3.0475,0.61125 0.95,0.40625 1.78,0.95875 2.49625,1.655 0.7175,0.69875 1.2775,1.5225 1.68375,2.47125 0.40625,0.94875 0.60875,1.96625 0.60875,3.05 0,1.08625 -0.2025,2.10375 -0.60875,3.0525 -0.40625,0.95 -0.96625,1.78375 -1.68375,2.49875 -0.71625,0.7175 -1.54625,1.28 -2.49625,1.685 -0.95,0.40875 -1.9625,0.61125 -3.0475,0.61125 l -15.6725,0 0,-5.18875 15.6725,0 c 0.775,0 1.4125,-0.24875 1.91625,-0.75 0.50375,-0.5 0.75375,-1.135 0.75375,-1.9075 0,-0.73125 -0.25,-1.3475 -0.75375,-1.84875 -0.50375,-0.50125 -1.14125,-0.7525 -1.91625,-0.7525 l -10.44875,0 c -1.08375,0 -2.10125,-0.2025 -3.0475,-0.60875 -0.9475,-0.4075 -1.77,-0.96875 -2.4675,-1.685 -0.69625,-0.7175 -1.2475,-1.55 -1.655,-2.5 -0.405,-0.94875 -0.61,-1.96625 -0.61,-3.0525 0,-1.08375 0.205,-2.10125 0.61,-3.05 0.4075,-0.95 0.95875,-1.77375 1.655,-2.47125 0.6975,-0.69625 1.52,-1.24875 2.4675,-1.65625 0.94625,-0.40625 1.96375,-0.61 3.0475,-0.61 l 15.7325,0 z"
       inkscape:connector-curvature="0"
       id="path132"
       style="fill:#004655;fill-opacity:1;fill-rule:nonzero;stroke:none" />
    <path
       style="fill:#004655;fill-opacity:1;fill-rule:nonzero;stroke:none"
       id="path134"
       inkscape:connector-curvature="0"
       d="m 163.13125,448.24627 -5.11875,0 0,-26.08125 5.11875,0 0,26.08125 z" />
    <path
       style="fill:#80cc28;fill-opacity:1;fill-rule:nonzero;stroke:none"
       id="path136"
       inkscape:connector-curvature="0"
       d="m 128.64875,420.18752 -5.1175,0 0,-3.96625 5.1175,0 0,3.96625 z" />
    <path
       style="fill:#80cc28;fill-opacity:1;fill-rule:nonzero;stroke:none"
       id="path138"
       inkscape:connector-curvature="0"
       d="m 163.13125,420.18752 -5.11875,0 0,-3.96625 5.11875,0 0,3.96625 z" />
    <path
       d="m 175.688,435.31727 c 0,1.0825 0.2025,2.10625 0.60875,3.07125 0.40625,0.96625 0.9675,1.80625 1.68125,2.52125 0.715,0.71375 1.5575,1.275 2.52375,1.68 0.965,0.405 1.99,0.60875 3.075,0.60875 1.0825,0 2.105,-0.20375 3.0725,-0.60875 0.965,-0.405 1.80625,-0.96625 2.52125,-1.68 0.715,-0.715 1.2775,-1.555 1.68375,-2.52125 0.405,-0.965 0.60875,-1.98875 0.60875,-3.07125 0,-1.0825 -0.20375,-2.09625 -0.60875,-3.04375 -0.40625,-0.94625 -0.96875,-1.77625 -1.68375,-2.49 -0.715,-0.715 -1.55625,-1.275 -2.52125,-1.68125 -0.9675,-0.405 -1.99,-0.60875 -3.0725,-0.60875 -1.085,0 -2.11,0.20375 -3.075,0.60875 -0.96625,0.40625 -1.80875,0.96625 -2.52375,1.68125 -0.71375,0.71375 -1.275,1.54375 -1.68125,2.49 -0.40625,0.9475 -0.60875,1.96125 -0.60875,3.04375 m -5.1175,-0.001 c 0,-1.82 0.33875,-3.51375 1.01625,-5.0825 0.6775,-1.5675 1.60625,-2.94375 2.7875,-4.12375 1.1825,-1.18125 2.56625,-2.11 4.15375,-2.78875 1.5875,-0.6775 3.2725,-1.01625 5.0525,-1.01625 1.82125,0 3.515,0.33875 5.08375,1.01625 1.57,0.67875 2.95125,1.6075 4.15375,2.78875 1.2,1.18 2.1375,2.55625 2.81625,4.12375 0.6775,1.56875 1.0175,3.2625 1.0175,5.0825 0,1.7825 -0.34,3.4675 -1.0175,5.055 -0.67875,1.5875 -1.61625,2.98125 -2.81625,4.1825 -1.2025,1.2 -2.58375,2.13875 -4.15375,2.81625 -1.56875,0.67875 -3.2625,1.01625 -5.08375,1.01625 -1.78,0 -3.465,-0.3375 -5.0525,-1.01625 -1.5875,-0.6775 -2.97125,-1.61625 -4.15375,-2.81625 -1.18125,-1.20125 -2.11,-2.595 -2.7875,-4.1825 -0.6775,-1.5875 -1.01625,-3.2725 -1.01625,-5.055"
       inkscape:connector-curvature="0"
       id="path142"
       style="fill:#004655;fill-opacity:1;fill-rule:nonzero;stroke:none" />
    <path
       d="m 200.345,430.16414 c 0.67625,-1.56875 1.60625,-2.94375 2.7875,-4.125 1.18,-1.18125 2.56375,-2.10875 4.1525,-2.7875 1.5875,-0.6775 3.27375,-1.0175 5.05375,-1.0175 1.82125,0 3.51375,0.34 5.08375,1.0175 1.5675,0.67875 2.95125,1.60625 4.15125,2.7875 1.20125,1.18125 2.14,2.55625 2.8175,4.125 0.67625,1.56875 1.0175,3.26125 1.0175,5.08125 l 0,13.07 -5.19,0 0,-13.0575 c 0,-1.0825 -0.20125,-2.0975 -0.60625,-3.04625 -0.40625,-0.9475 -0.9675,-1.77875 -1.68125,-2.495 -0.715,-0.71625 -1.555,-1.27625 -2.52,-1.68375 -0.9675,-0.40625 -1.99,-0.61 -3.07125,-0.61 -1.08375,0 -2.0975,0.20375 -3.04375,0.61 -0.9475,0.4075 -1.7775,0.9675 -2.4925,1.68375 -0.7125,0.71625 -1.275,1.5475 -1.68,2.495 -0.40625,0.94875 -0.60875,1.96375 -0.60875,3.04625 l 0,13.0575 -5.18625,0 0,-13.07 c 0,-1.82 0.3375,-3.5125 1.01625,-5.08125"
       inkscape:connector-curvature="0"
       id="path146"
       style="fill:#004655;fill-opacity:1;fill-rule:nonzero;stroke:none" />
    <path
       d="m 165.54163,456.71252 c 0,0 -8.1325,-40.52375 39.8225,-41.645 0,0 -33.93375,2.66375 -39.8225,41.645"
       inkscape:connector-curvature="0"
       id="path150"
       style="fill:#80cc28;fill-opacity:1;fill-rule:nonzero;stroke:none" />
    <path
       d="m 225.1925,352.42302 -18.36,0 -0.21625,0.2625 0,20.63125 -17.7125,0 0,-20.63125 -0.215,-0.2625 -18.47,0 -0.215,0.2625 0,59.92625 0.215,0.2625 18.47,0 0.215,-0.2625 0,-24.57625 17.7125,0 0,24.57625 0.21625,0.2625 11.19875,0 c 4.07375,0 7.3775,-3.3025 7.3775,-7.3775 l 0,-52.81125 -0.21625,-0.2625 z m -80.7,0 -13.67375,29.56875 -0.10625,0 -6.57625,-14.19375 c -4.1075,-9.1125 -6.51,-14.23625 -7.20375,-15.375 l -14.965,0 c -4.075,0 -7.37625,3.30375 -7.37625,7.3775 l 0,52.81125 0.2075,0.2625 17.85375,0 0.20875,-0.2625 0,-29.0425 3.86125,8.01625 c 6.14375,13.6 9.45,20.6975 9.92,21.28875 l 8.35,0 13.57375,-29.305 0.1025,0 0,29.0425 0.21,0.2625 17.7475,0 0.2075,-0.2625 0,-59.92625 -0.2075,-0.2625 -22.13375,0 z"
       inkscape:connector-curvature="0"
       id="path154"
       style="fill:#004655;fill-opacity:1;fill-rule:nonzero;stroke:none" />
  </g>
</svg>
